<svg id="svg" version="1.1" xmlns="http://www.w3.org/2000/svg" xmlns:xlink="http://www.w3.org/1999/xlink" width="400" height="400" viewBox="0, 0, 400,400"><g id="svgg"><path id="path0" d="M207.958 133.103 C 207.385 133.486,195.309 143.115,181.123 154.500 C 159.865 171.560,155.117 175.200,154.123 175.200 C 153.093 175.200,151.673 173.990,144.454 166.959 C 138.669 161.325,135.799 158.791,135.382 158.951 C 134.390 159.332,134.719 273.713,135.729 279.200 C 141.695 311.630,164.038 335.310,195.000 342.021 C 205.564 344.311,227.378 342.900,233.754 339.514 C 234.417 339.162,233.026 337.625,222.302 326.857 L 210.096 314.600 206.048 304.780 L 202.000 294.961 202.000 247.160 L 202.000 199.360 198.610 198.870 C 185.502 196.975,177.435 191.298,180.736 186.292 C 187.934 175.376,232.707 174.677,242.686 185.325 C 243.606 186.306,244.233 187.264,244.079 187.454 C 243.926 187.644,243.972 187.658,244.183 187.484 C 244.400 187.304,253.245 195.846,264.683 207.283 L 284.800 227.397 284.800 192.522 C 284.800 167.596,284.675 157.570,284.360 157.375 C 284.107 157.219,280.243 160.767,275.239 165.752 C 270.465 170.508,266.278 174.400,265.935 174.400 C 264.992 174.400,264.464 174.003,237.304 152.893 C 207.690 129.877,210.225 131.586,207.958 133.103 M207.100 199.882 C 207.595 199.978,208.405 199.978,208.900 199.882 C 209.395 199.787,208.990 199.709,208.000 199.709 C 207.010 199.709,206.605 199.787,207.100 199.882 M215.500 199.882 C 215.995 199.978,216.805 199.978,217.300 199.882 C 217.795 199.787,217.390 199.709,216.400 199.709 C 215.410 199.709,215.005 199.787,215.500 199.882 M219.393 250.600 C 219.393 275.020,219.441 284.951,219.500 272.669 C 219.559 260.387,219.559 240.407,219.500 228.269 C 219.441 216.131,219.393 226.180,219.393 250.600 M280.800 291.200 C 280.551 292.124,280.426 292.959,280.521 293.055 C 280.617 293.150,280.890 292.463,281.127 291.527 C 281.365 290.591,281.490 289.757,281.406 289.673 C 281.322 289.588,281.049 290.276,280.800 291.200 " stroke="none" fill="#707070" fill-rule="evenodd"></path><path id="path1" d="M278.032 60.789 C 272.930 62.670,272.600 63.571,272.600 75.600 C 272.600 87.266,272.789 87.954,276.491 89.763 C 282.699 92.795,293.858 91.945,297.156 88.189 C 298.785 86.334,298.865 85.639,298.723 74.568 L 298.600 64.936 297.521 63.522 C 294.995 60.212,283.837 58.647,278.032 60.789 M310.743 60.535 C 305.267 62.570,304.896 63.476,304.823 75.009 C 304.755 85.781,304.854 86.454,306.798 88.398 C 311.546 93.146,326.575 92.543,329.934 87.470 C 332.279 83.929,331.638 65.355,329.085 62.884 C 326.408 60.293,315.241 58.863,310.743 60.535 M9.900 60.832 C 9.317 61.172,9.200 61.830,9.200 64.777 C 9.200 68.926,9.061 68.800,13.633 68.800 L 16.800 68.800 16.800 79.320 C 16.800 91.782,16.350 90.800,22.066 90.800 C 27.632 90.800,27.254 91.683,27.113 79.001 L 27.000 68.799 30.420 68.800 C 32.547 68.800,34.021 68.619,34.320 68.320 C 34.965 67.675,34.965 61.525,34.320 60.880 C 33.700 60.260,10.958 60.216,9.900 60.832 M40.080 60.880 C 39.392 61.568,39.392 89.632,40.080 90.320 C 40.390 90.630,41.991 90.800,44.600 90.800 C 49.761 90.800,49.600 90.989,49.600 84.920 L 49.600 80.000 52.900 79.999 L 56.200 79.998 56.076 84.581 C 55.902 91.002,55.775 90.853,61.321 90.713 L 65.800 90.600 65.905 75.827 C 66.026 58.747,66.569 60.415,60.890 60.406 C 55.897 60.399,55.887 60.412,56.076 66.690 L 56.200 70.802 52.900 70.801 L 49.600 70.800 49.600 66.080 C 49.600 60.237,49.743 60.400,44.600 60.400 C 41.991 60.400,40.390 60.570,40.080 60.880 M73.280 60.880 C 72.592 61.568,72.592 89.632,73.280 90.320 C 73.788 90.828,93.695 91.045,94.967 90.557 C 95.478 90.361,95.600 89.633,95.600 86.771 C 95.600 82.265,95.733 82.344,88.291 82.423 L 82.600 82.484 82.740 81.142 C 82.946 79.161,82.939 79.164,87.236 79.231 C 92.243 79.310,92.400 79.194,92.400 75.431 C 92.400 71.653,92.328 71.600,87.164 71.600 L 82.888 71.600 82.724 70.200 L 82.561 68.800 88.307 68.800 C 95.699 68.800,95.600 68.856,95.600 64.666 C 95.600 62.628,95.416 61.176,95.120 60.880 C 94.436 60.196,73.964 60.196,73.280 60.880 M106.400 61.147 C 104.016 62.087,102.800 62.880,102.800 63.496 C 102.800 63.773,102.664 64.000,102.498 64.000 C 100.751 64.000,100.181 83.431,101.835 86.600 C 103.718 90.209,105.810 90.795,116.820 90.798 C 127.390 90.801,126.400 91.632,126.400 82.749 C 126.400 74.046,126.610 74.400,121.448 74.400 C 116.550 74.400,116.450 74.489,116.311 78.955 L 116.200 82.511 114.400 82.569 C 110.706 82.690,110.800 82.867,110.800 75.824 C 110.800 68.339,110.360 68.800,117.494 68.800 C 123.699 68.800,123.600 68.868,123.600 64.600 C 123.600 62.613,123.414 61.174,123.120 60.880 C 122.288 60.048,108.635 60.266,106.400 61.147 M137.901 60.900 C 137.135 61.488,133.548 70.353,132.399 74.502 C 131.503 77.733,131.235 88.570,132.014 90.026 C 132.378 90.707,132.880 90.800,136.181 90.800 C 141.391 90.800,141.200 90.946,141.200 86.957 L 141.200 83.600 144.784 83.600 L 148.369 83.600 148.484 87.100 L 148.600 90.600 153.200 90.600 L 157.800 90.600 157.909 83.303 C 158.016 76.110,158.001 75.956,156.820 72.503 C 154.839 66.706,152.520 61.122,151.943 60.756 C 151.049 60.190,138.662 60.316,137.901 60.900 M164.582 60.902 C 164.476 61.178,164.437 67.973,164.495 76.002 L 164.600 90.600 168.499 90.714 C 174.322 90.885,173.996 91.359,174.019 82.686 L 174.038 75.400 175.233 77.715 C 176.529 80.225,177.425 80.806,179.614 80.558 C 181.723 80.318,181.885 80.195,183.084 77.919 L 184.200 75.800 184.310 82.771 C 184.378 87.084,184.587 89.943,184.859 90.271 C 185.316 90.822,192.478 91.052,193.767 90.557 C 194.514 90.271,194.738 63.341,194.010 61.426 C 193.627 60.418,193.548 60.400,189.584 60.400 C 184.690 60.400,184.327 60.575,182.749 63.700 C 179.517 70.104,179.393 70.158,177.187 66.100 C 176.261 64.395,175.065 62.415,174.531 61.700 L 173.559 60.400 169.167 60.400 C 166.014 60.400,164.721 60.542,164.582 60.902 M201.700 60.665 C 201.173 60.878,200.929 88.828,201.443 90.167 C 201.759 90.992,222.703 91.137,223.520 90.320 C 224.083 89.757,224.171 84.090,223.631 83.236 C 223.185 82.532,222.643 82.474,216.100 82.433 L 210.800 82.400 210.800 81.043 C 210.800 79.303,211.220 79.155,215.903 79.234 C 220.446 79.311,220.520 79.251,220.520 75.479 C 220.520 71.469,220.694 71.600,215.376 71.600 L 210.800 71.600 210.800 70.200 L 210.800 68.800 216.626 68.800 C 224.181 68.800,224.096 68.848,223.964 64.668 C 223.907 62.871,223.690 61.175,223.482 60.900 C 223.103 60.401,202.895 60.183,201.700 60.665 M243.284 60.740 C 242.908 60.978,242.800 62.090,242.884 64.833 L 243.000 68.600 246.700 68.715 L 250.400 68.830 250.400 79.607 L 250.400 90.385 251.300 90.609 C 251.795 90.733,254.000 90.781,256.200 90.717 L 260.200 90.600 260.306 79.715 L 260.413 68.830 264.106 68.715 L 267.800 68.600 267.916 65.060 C 267.991 62.795,267.865 61.319,267.567 60.960 C 267.041 60.327,244.262 60.119,243.284 60.740 M337.842 61.015 C 336.991 61.866,336.859 88.981,337.700 90.130 C 338.155 90.752,339.261 90.803,350.000 90.706 L 361.800 90.600 361.800 82.600 L 361.800 74.600 357.495 74.486 L 353.191 74.373 352.767 75.486 C 352.534 76.099,352.401 77.905,352.472 79.501 L 352.600 82.402 349.906 82.401 L 347.213 82.400 347.106 71.500 L 347.000 60.600 342.742 60.487 C 339.262 60.394,338.366 60.491,337.842 61.015 M373.000 60.800 C 372.864 61.020,372.375 61.200,371.914 61.200 C 368.959 61.200,367.200 64.559,367.200 70.200 C 367.200 77.750,368.678 79.054,378.524 80.194 C 380.717 80.448,380.840 80.520,380.724 81.475 L 380.600 82.487 374.708 82.425 C 366.958 82.344,367.139 82.234,367.285 86.922 L 367.400 90.600 375.800 90.720 C 389.065 90.910,390.810 89.792,390.791 81.113 C 390.776 74.223,389.361 72.539,382.800 71.606 C 376.962 70.775,377.200 70.853,377.200 69.782 L 377.200 68.800 382.771 68.800 C 389.545 68.800,389.529 68.809,389.519 64.708 C 389.508 60.141,390.020 60.400,381.010 60.400 C 376.266 60.400,373.151 60.556,373.000 60.800 M288.571 69.029 C 289.443 69.900,289.498 81.039,288.637 82.217 C 287.946 83.162,284.113 83.323,283.062 82.451 C 282.038 81.602,282.073 69.430,283.100 68.832 C 284.225 68.177,287.850 68.307,288.571 69.029 M320.720 68.880 C 321.494 69.654,321.383 81.750,320.596 82.404 C 319.889 82.990,315.686 83.046,315.116 82.476 C 314.525 81.885,314.711 69.104,315.316 68.720 C 316.087 68.230,320.192 68.352,320.720 68.880 M146.816 72.300 L 147.887 75.600 144.798 75.600 L 141.709 75.600 142.655 72.700 C 143.175 71.105,143.689 69.562,143.798 69.272 C 144.397 67.676,145.758 69.041,146.816 72.300 M229.829 79.429 C 229.084 80.173,228.911 88.713,229.614 90.026 C 230.151 91.030,239.953 91.220,240.764 90.243 C 241.608 89.227,241.281 79.672,240.387 79.193 C 239.103 78.506,230.561 78.696,229.829 79.429 M0.000 109.200 C 0.000 110.303,0.113 110.400,1.386 110.400 L 2.773 110.400 2.886 114.700 L 3.000 119.000 4.300 119.125 L 5.600 119.251 5.600 114.825 L 5.600 110.400 7.000 110.400 C 8.289 110.400,8.400 110.305,8.400 109.200 L 8.400 108.000 4.200 108.000 L 0.000 108.000 0.000 109.200 M16.753 108.601 C 13.651 110.287,13.648 116.970,16.749 118.573 C 21.929 121.252,26.812 115.779,24.124 110.307 C 23.084 108.191,19.172 107.286,16.753 108.601 M34.555 108.370 C 31.310 109.765,30.652 115.132,33.392 117.872 C 35.581 120.061,39.670 119.584,41.405 116.936 C 42.278 115.604,42.491 111.164,41.695 110.898 C 41.420 110.807,41.281 110.593,41.385 110.424 C 42.235 109.050,36.786 107.411,34.555 108.370 M49.600 113.600 L 49.600 119.200 53.000 119.200 L 56.400 119.200 56.400 118.000 C 56.400 116.810,56.382 116.800,54.165 116.800 L 51.929 116.800 52.065 112.400 L 52.200 107.999 50.900 108.000 L 49.600 108.000 49.600 113.600 M64.546 108.446 C 61.829 109.832,62.584 113.057,66.038 114.819 C 68.670 116.162,67.238 117.600,64.300 116.564 L 62.800 116.035 62.800 117.371 C 62.800 118.418,62.995 118.759,63.700 118.948 C 69.935 120.619,72.476 115.313,66.875 112.319 C 64.800 111.209,65.170 110.238,67.560 110.521 C 69.551 110.757,70.684 109.724,69.610 108.650 C 69.056 108.096,65.511 107.953,64.546 108.446 M86.575 108.522 C 86.464 108.809,86.425 111.284,86.487 114.022 L 86.600 119.000 87.900 119.125 L 89.200 119.251 89.200 117.025 L 89.200 114.800 91.000 114.800 C 92.653 114.800,92.800 114.719,92.800 113.800 C 92.800 112.881,92.653 112.800,91.000 112.800 C 88.128 112.800,88.220 110.507,91.100 110.322 C 92.840 110.210,93.011 110.107,93.127 109.100 L 93.253 108.000 90.014 108.000 C 87.718 108.000,86.717 108.152,86.575 108.522 M102.555 108.392 C 100.389 109.267,99.189 112.590,99.980 115.526 C 101.332 120.548,108.677 120.515,110.032 115.481 C 111.390 110.436,107.238 106.500,102.555 108.392 M117.867 108.267 C 117.720 108.413,117.600 110.933,117.600 113.867 L 117.600 119.200 119.000 119.200 L 120.400 119.200 120.400 117.200 C 120.400 116.100,120.582 115.200,120.804 115.200 C 121.026 115.200,121.761 116.100,122.438 117.200 C 123.527 118.969,123.826 119.200,125.034 119.200 C 126.657 119.200,126.730 118.872,125.419 117.458 C 124.880 116.876,124.524 116.400,124.628 116.400 C 124.733 116.400,124.529 115.959,124.176 115.419 C 123.573 114.500,123.585 114.383,124.367 113.544 C 125.938 111.857,125.302 109.193,123.149 108.442 C 121.759 107.958,118.291 107.842,117.867 108.267 M142.400 113.546 L 142.400 119.200 143.600 119.200 C 144.773 119.200,144.800 119.156,144.800 117.200 C 144.800 115.683,144.946 115.200,145.404 115.200 C 145.736 115.200,146.561 116.100,147.238 117.200 C 148.333 118.980,148.622 119.200,149.858 119.200 C 151.383 119.200,151.392 119.276,149.532 116.528 C 148.183 114.536,148.190 114.592,149.200 113.508 C 151.478 111.062,149.522 108.402,145.219 108.094 L 142.400 107.893 142.400 113.546 M157.867 108.267 C 157.720 108.413,157.600 110.933,157.600 113.867 L 157.600 119.200 159.000 119.200 L 160.400 119.200 160.400 117.200 L 160.400 115.200 161.778 115.200 C 165.802 115.200,166.743 109.488,162.895 108.420 C 161.210 107.952,158.271 107.862,157.867 108.267 M174.800 108.678 C 172.841 109.688,171.901 111.664,172.143 114.264 C 172.532 118.450,175.012 119.938,179.950 118.950 L 181.200 118.700 181.200 115.750 L 181.200 112.800 178.800 112.800 L 176.400 112.800 176.400 114.000 C 176.400 114.998,176.561 115.200,177.353 115.200 C 177.970 115.200,178.381 115.482,178.516 116.000 C 178.693 116.679,178.528 116.800,177.425 116.800 C 175.445 116.800,174.653 115.675,174.890 113.202 C 175.136 110.647,175.192 110.600,178.015 110.600 C 180.258 110.600,181.938 109.405,181.007 108.473 C 180.385 107.852,176.130 107.992,174.800 108.678 M189.433 108.845 C 187.565 110.315,188.059 112.640,190.600 114.331 C 193.272 116.110,193.398 116.800,191.053 116.800 C 190.060 116.800,189.136 116.620,189.000 116.400 C 188.515 115.615,188.000 116.020,188.000 117.186 C 188.000 119.539,192.351 120.111,194.431 118.031 C 196.352 116.110,195.579 114.022,192.336 112.367 C 190.281 111.319,190.537 110.581,192.927 110.663 C 194.473 110.717,194.812 110.593,195.034 109.894 C 195.633 108.006,191.487 107.230,189.433 108.845 M212.870 108.926 C 211.905 109.952,211.782 110.845,212.434 112.064 C 212.784 112.718,212.707 113.047,212.034 113.764 C 209.208 116.772,213.078 120.443,217.360 118.815 C 218.008 118.569,218.457 118.569,218.609 118.815 C 218.883 119.257,222.000 119.347,222.000 118.913 C 222.000 118.755,221.525 118.218,220.946 117.719 C 220.069 116.966,219.976 116.711,220.394 116.207 C 220.671 115.873,220.741 115.597,220.549 115.594 C 220.357 115.591,220.411 115.454,220.668 115.290 C 220.926 115.126,221.254 114.524,221.398 113.952 C 221.795 112.368,219.262 112.505,218.609 114.102 L 218.165 115.187 217.336 114.358 L 216.507 113.529 217.454 112.583 C 218.687 111.349,218.715 109.466,217.511 108.623 C 216.161 107.677,213.904 107.825,212.870 108.926 M238.000 113.600 L 238.000 119.200 240.700 119.199 C 244.036 119.197,245.974 118.221,246.047 116.506 C 246.120 114.810,245.972 114.228,245.385 113.893 C 244.940 113.640,244.958 113.390,245.486 112.470 C 247.004 109.825,244.932 108.000,240.413 108.000 L 238.000 108.000 238.000 113.600 M255.639 108.506 C 252.657 110.038,251.994 115.239,254.449 117.852 C 254.926 118.360,255.470 118.680,255.658 118.564 C 255.846 118.448,256.000 118.565,256.000 118.824 C 256.000 119.932,260.830 119.040,262.016 117.712 C 266.205 113.025,261.122 105.688,255.639 108.506 M272.257 109.900 C 271.942 110.945,271.125 113.319,270.442 115.177 C 268.909 119.344,268.903 119.200,270.610 119.200 C 271.857 119.200,272.048 119.061,272.260 118.000 C 272.485 116.873,272.613 116.800,274.362 116.800 C 276.064 116.800,276.264 116.903,276.678 118.000 C 277.063 119.021,277.341 119.200,278.541 119.200 L 279.951 119.200 278.916 116.300 C 278.347 114.705,277.727 113.340,277.538 113.266 C 277.350 113.192,277.289 112.980,277.403 112.795 C 277.517 112.610,277.235 111.456,276.777 110.229 C 275.573 107.013,273.182 106.839,272.257 109.900 M286.400 113.553 L 286.400 119.200 287.600 119.200 C 288.773 119.200,288.800 119.156,288.800 117.200 C 288.800 115.801,288.960 115.200,289.333 115.200 C 289.626 115.200,290.448 116.100,291.161 117.200 C 292.404 119.117,294.003 119.863,294.916 118.951 C 295.180 118.687,293.461 116.147,292.447 115.301 C 291.927 114.866,291.993 114.651,292.953 113.649 C 295.443 111.050,293.534 108.361,288.996 108.072 L 286.400 107.907 286.400 113.553 M301.600 113.600 L 301.600 119.200 304.016 119.200 C 308.355 119.200,310.800 117.182,310.800 113.600 C 310.800 110.027,308.330 108.026,303.900 108.009 L 301.600 108.000 301.600 113.600 M330.167 108.366 C 326.656 109.877,326.028 118.400,329.427 118.400 C 329.742 118.400,330.000 118.580,330.000 118.800 C 330.000 119.234,333.639 119.339,335.100 118.948 C 335.930 118.725,336.000 118.478,336.000 115.753 L 336.000 112.800 333.800 112.800 C 331.622 112.800,331.600 112.812,331.600 114.000 C 331.600 115.013,331.756 115.200,332.600 115.200 C 333.652 115.200,334.124 116.752,333.100 116.846 C 330.815 117.057,329.890 116.211,329.839 113.867 C 329.780 111.180,330.790 110.248,333.465 110.523 C 335.447 110.726,336.843 109.510,335.811 108.478 C 335.413 108.080,331.034 107.993,330.167 108.366 M345.949 109.100 C 344.834 111.947,344.408 113.342,344.597 113.530 C 344.709 113.643,344.556 114.020,344.256 114.368 C 343.817 114.877,342.400 118.485,342.400 119.095 C 342.400 120.020,345.399 118.826,345.663 117.796 C 346.117 116.033,349.317 116.214,349.953 118.038 C 350.298 119.027,350.571 119.200,351.779 119.200 C 353.130 119.200,353.533 118.867,352.922 118.255 C 352.769 118.102,352.605 117.757,352.558 117.488 C 352.306 116.049,349.452 108.557,349.060 108.306 C 347.942 107.592,346.385 107.989,345.949 109.100 M359.600 113.600 L 359.600 119.200 360.800 119.200 L 362.000 119.200 362.032 115.900 C 362.049 114.085,362.129 112.780,362.210 113.000 C 362.291 113.220,362.748 114.715,363.225 116.322 C 364.542 120.763,366.028 120.519,367.634 115.600 L 368.744 112.200 368.772 115.700 L 368.800 119.200 370.000 119.200 L 371.200 119.200 371.200 113.577 L 371.200 107.954 369.531 108.077 L 367.863 108.200 366.656 111.915 C 365.323 116.016,365.320 116.015,363.985 111.300 L 363.051 108.000 361.325 108.000 L 359.600 108.000 359.600 113.600 M379.200 113.583 L 379.200 119.200 382.400 119.200 L 385.600 119.200 385.600 118.000 C 385.600 116.827,385.556 116.800,383.600 116.800 C 381.644 116.800,381.600 116.773,381.600 115.600 C 381.600 114.449,381.672 114.400,383.353 114.400 C 384.906 114.400,385.129 114.286,385.298 113.400 C 385.481 112.444,385.403 112.400,383.545 112.400 C 381.737 112.400,381.600 112.330,381.600 111.400 C 381.600 110.465,381.732 110.400,383.627 110.400 C 385.601 110.400,385.650 110.372,385.527 109.300 C 385.402 108.217,385.351 108.198,382.300 108.083 L 379.200 107.966 379.200 113.583 M393.500 108.937 C 391.465 110.833,392.144 113.052,395.241 114.621 C 396.348 115.182,397.180 115.856,397.090 116.120 C 396.907 116.659,393.805 116.741,392.702 116.235 C 392.089 115.955,392.035 116.080,392.264 117.258 C 392.599 118.978,392.949 119.186,395.518 119.194 C 400.516 119.208,401.128 114.806,396.475 112.319 C 394.463 111.243,394.767 110.247,397.029 110.502 C 398.787 110.700,400.381 109.447,399.497 108.563 C 398.631 107.698,394.558 107.952,393.500 108.937 M216.000 110.520 C 216.000 111.067,215.227 112.000,214.775 112.000 C 214.562 112.000,214.542 110.506,214.749 110.100 C 214.933 109.740,216.000 110.098,216.000 110.520 M21.371 111.029 C 22.219 111.876,22.219 115.324,21.371 116.171 C 19.988 117.554,17.255 116.582,17.154 114.671 C 16.957 110.949,19.283 108.940,21.371 111.029 M38.851 111.061 C 40.256 112.754,39.339 116.374,37.356 116.966 C 35.238 117.599,33.517 113.608,34.958 111.408 C 35.746 110.205,37.975 110.006,38.851 111.061 M106.749 110.938 C 108.051 112.507,107.509 116.521,105.940 116.932 C 103.163 117.658,101.264 113.345,103.285 110.900 C 103.835 110.235,106.186 110.261,106.749 110.938 M122.400 111.000 C 122.797 111.479,122.797 111.721,122.400 112.200 C 121.547 113.228,120.510 112.930,120.315 111.600 C 120.115 110.238,121.449 109.854,122.400 111.000 M147.000 111.600 C 147.000 112.394,146.773 112.626,145.900 112.727 C 144.907 112.841,144.800 112.731,144.800 111.600 C 144.800 110.469,144.907 110.359,145.900 110.473 C 146.773 110.574,147.000 110.806,147.000 111.600 M162.559 111.323 C 162.911 111.901,162.844 112.163,162.224 112.623 C 160.933 113.581,160.400 113.332,160.400 111.772 C 160.400 110.167,161.691 109.899,162.559 111.323 M243.071 111.040 C 243.350 111.767,242.586 112.385,241.400 112.394 C 240.812 112.398,240.600 112.135,240.600 111.400 C 240.600 110.210,242.638 109.913,243.071 111.040 M260.242 111.408 C 262.186 114.376,258.878 118.649,256.487 116.259 C 255.695 115.466,255.617 111.944,256.372 111.034 C 257.225 110.005,259.465 110.222,260.242 111.408 M291.000 111.600 C 291.000 112.394,290.773 112.626,289.900 112.727 C 288.907 112.841,288.800 112.731,288.800 111.600 C 288.800 110.469,288.907 110.359,289.900 110.473 C 290.773 110.574,291.000 110.806,291.000 111.600 M307.200 111.200 C 308.953 112.953,307.838 116.800,305.577 116.800 L 304.400 116.800 304.400 113.600 C 304.400 110.063,305.296 109.296,307.200 111.200 M275.594 114.300 C 275.597 114.355,275.085 114.400,274.455 114.400 L 273.310 114.400 273.922 112.539 L 274.535 110.678 275.061 112.439 C 275.351 113.408,275.591 114.245,275.594 114.300 M348.548 113.300 C 348.786 114.280,348.705 114.400,347.808 114.400 C 346.645 114.400,346.646 114.406,347.276 112.305 C 347.775 110.638,347.931 110.759,348.548 113.300 M243.008 114.957 C 244.008 115.688,243.189 116.800,241.651 116.800 C 240.750 116.800,240.600 116.629,240.600 115.600 C 240.600 114.242,241.648 113.962,243.008 114.957 M215.622 115.757 C 216.743 116.701,216.747 116.717,215.865 116.886 C 214.514 117.144,214.000 116.835,214.000 115.767 C 214.000 114.562,214.200 114.561,215.622 115.757 " stroke="none" fill="#ac0404" fill-rule="evenodd"></path><path id="path2" d="M201.600 178.412 C 169.533 182.837,174.958 198.277,209.000 199.474 C 240.089 200.568,256.861 187.030,232.648 180.388 C 225.320 178.377,209.258 177.355,201.600 178.412 M202.000 246.955 L 202.000 294.377 206.007 304.037 C 208.211 309.350,210.167 313.969,210.353 314.302 C 210.579 314.706,210.849 313.788,211.162 311.554 C 212.857 299.449,213.943 296.800,217.215 296.800 C 219.264 296.800,219.243 297.304,219.117 250.205 C 219.007 209.100,218.960 206.603,218.302 206.476 C 217.641 206.349,217.598 208.732,217.502 250.471 L 217.400 294.600 215.640 294.726 C 214.502 294.807,213.761 294.666,213.546 294.326 C 213.362 294.037,213.204 273.820,213.195 249.400 L 213.177 205.000 207.889 202.408 C 204.980 200.982,202.465 199.752,202.300 199.675 C 202.135 199.597,202.000 220.873,202.000 246.955 " stroke="none" fill="#fbfbfb" fill-rule="evenodd"></path><path id="path3" d="M210.313 177.895 C 211.476 177.976,213.276 177.976,214.313 177.893 C 215.351 177.811,214.400 177.745,212.200 177.746 C 210.000 177.747,209.151 177.814,210.313 177.895 M213.297 249.546 L 213.395 294.200 213.599 249.800 L 213.803 205.400 214.002 249.793 L 214.200 294.186 215.693 294.429 L 217.186 294.672 217.197 250.892 C 217.202 226.813,217.291 206.976,217.394 206.809 C 217.497 206.643,216.596 206.143,215.391 205.699 L 213.200 204.892 213.297 249.546 M216.600 297.222 C 217.273 297.529,217.210 297.572,216.202 297.494 C 215.363 297.428,215.003 297.580,215.002 298.000 C 215.001 298.330,214.790 298.600,214.533 298.600 C 214.277 298.600,213.917 298.764,213.733 298.964 C 213.536 299.180,213.631 299.194,213.968 298.999 C 214.412 298.741,214.464 298.836,214.209 299.434 C 214.029 299.855,213.575 301.550,213.201 303.200 C 212.753 305.170,212.442 305.925,212.293 305.400 C 212.168 304.960,212.138 305.590,212.226 306.800 C 212.346 308.456,212.295 308.753,212.019 308.000 C 211.747 307.257,211.699 307.565,211.832 309.200 C 211.962 310.794,211.905 311.180,211.626 310.600 C 211.289 309.898,211.243 309.947,211.255 311.000 C 211.263 311.660,211.150 312.650,211.005 313.200 C 210.599 314.739,212.177 311.274,215.228 303.925 C 218.444 296.182,218.300 296.792,216.900 296.828 C 215.913 296.853,215.882 296.894,216.600 297.222 " stroke="none" fill="#b4b4b4" fill-rule="evenodd"></path><path id="path4" d="M213.793 249.600 C 213.793 273.910,213.841 283.855,213.900 271.700 C 213.959 259.545,213.959 239.655,213.900 227.500 C 213.841 215.345,213.793 225.290,213.793 249.600 M217.393 250.200 C 217.393 273.960,217.441 283.621,217.500 271.669 C 217.559 259.717,217.559 240.277,217.500 228.469 C 217.441 216.661,217.393 226.440,217.393 250.200 M212.046 307.667 C 212.021 308.034,211.896 308.664,211.770 309.067 C 211.552 309.762,211.563 309.763,211.997 309.087 C 212.248 308.696,212.373 308.066,212.273 307.687 C 212.111 307.068,212.088 307.066,212.046 307.667 " stroke="none" fill="#acacac" fill-rule="evenodd"></path><path id="path5" d="M244.677 187.876 C 244.552 188.078,244.465 188.814,244.485 189.510 C 244.520 190.741,241.526 194.371,240.700 194.099 C 240.535 194.044,240.400 194.191,240.400 194.424 C 240.400 194.657,240.220 194.736,240.000 194.600 C 239.780 194.464,239.600 194.531,239.600 194.749 C 239.600 195.147,238.063 195.828,237.500 195.679 C 237.335 195.636,237.200 195.791,237.200 196.024 C 237.200 196.257,237.020 196.336,236.800 196.200 C 236.580 196.064,236.400 196.163,236.400 196.419 C 236.400 196.676,236.130 196.782,235.800 196.655 C 235.470 196.529,235.200 196.619,235.200 196.855 C 235.200 197.092,234.930 197.182,234.600 197.055 C 234.270 196.929,234.000 197.019,234.000 197.255 C 234.000 197.492,233.736 197.584,233.413 197.460 C 233.090 197.336,232.712 197.419,232.572 197.645 C 232.433 197.870,232.067 197.958,231.760 197.840 C 231.452 197.722,231.200 197.820,231.200 198.059 C 231.200 198.298,230.840 198.399,230.400 198.284 C 229.961 198.169,229.495 198.246,229.367 198.454 C 229.238 198.662,228.803 198.728,228.400 198.600 C 227.997 198.472,227.543 198.569,227.390 198.816 C 227.238 199.063,226.693 199.160,226.181 199.031 C 225.668 198.902,225.138 198.977,225.002 199.197 C 224.866 199.416,224.180 199.595,223.478 199.594 C 222.775 199.592,220.850 199.710,219.200 199.856 C 214.766 200.246,208.478 200.248,206.200 199.858 L 204.200 199.516 205.200 200.507 C 205.750 201.051,206.335 201.420,206.500 201.325 C 206.665 201.230,206.800 201.354,206.800 201.600 C 206.800 201.846,206.980 201.936,207.200 201.800 C 207.420 201.664,207.600 201.754,207.600 202.000 C 207.600 202.246,207.780 202.336,208.000 202.200 C 208.220 202.064,208.400 202.105,208.400 202.291 C 208.400 202.477,208.802 202.660,209.294 202.697 C 209.786 202.734,210.251 202.954,210.328 203.185 C 210.405 203.416,210.633 203.503,210.834 203.379 C 211.035 203.255,211.200 203.305,211.200 203.491 C 211.200 203.677,211.589 203.859,212.064 203.895 C 212.539 203.931,213.034 204.123,213.164 204.322 C 213.412 204.703,216.171 205.704,217.207 205.788 C 217.541 205.816,218.036 205.975,218.307 206.143 C 218.578 206.310,218.800 206.325,218.800 206.175 C 218.800 206.025,219.068 206.124,219.396 206.396 C 219.723 206.668,219.905 207.031,219.799 207.202 C 219.693 207.373,219.602 227.332,219.597 251.556 C 219.589 284.464,219.470 295.600,219.126 295.600 C 218.874 295.600,218.785 295.718,218.930 295.863 C 219.075 296.008,219.031 296.323,218.833 296.563 C 218.427 297.054,211.549 313.528,211.432 314.288 C 211.390 314.557,211.224 314.909,211.063 315.071 C 210.640 315.493,234.412 339.161,235.061 338.964 C 235.358 338.874,235.915 338.683,236.300 338.540 C 236.685 338.396,237.257 338.228,237.571 338.165 C 238.712 337.936,248.000 333.132,248.000 332.771 C 248.000 332.567,248.135 332.439,248.300 332.486 C 248.677 332.594,252.153 330.400,252.333 329.940 C 252.407 329.753,252.645 329.600,252.864 329.600 C 253.929 329.600,266.400 318.512,266.400 317.565 C 266.400 317.426,267.036 316.637,267.814 315.812 C 270.885 312.556,278.384 300.117,277.693 299.426 C 277.544 299.278,277.688 298.993,278.012 298.793 C 278.335 298.593,278.616 298.288,278.636 298.115 C 278.656 297.942,278.980 297.108,279.357 296.263 C 279.734 295.418,280.236 293.757,280.474 292.572 C 280.731 291.293,281.073 290.521,281.315 290.671 C 281.544 290.813,281.602 290.728,281.448 290.478 C 281.297 290.233,281.352 289.710,281.570 289.316 C 282.089 288.382,282.885 284.902,282.902 283.500 C 282.909 282.895,283.084 282.400,283.291 282.400 C 283.498 282.400,283.588 282.175,283.491 281.900 C 283.394 281.625,283.480 280.953,283.683 280.407 C 284.367 278.561,284.588 271.874,284.699 249.600 L 284.810 227.400 264.857 207.454 C 253.883 196.483,244.802 187.673,244.677 187.876 " stroke="none" fill="#4f4f4f" fill-rule="evenodd"></path><path id="path6" d="M203.233 199.746 C 204.040 200.451,205.352 200.873,204.851 200.265 C 204.549 199.899,204.024 199.600,203.684 199.600 C 203.345 199.600,203.142 199.666,203.233 199.746 M210.313 200.295 C 211.476 200.376,213.276 200.376,214.313 200.293 C 215.351 200.211,214.400 200.145,212.200 200.146 C 210.000 200.147,209.151 200.214,210.313 200.295 " stroke="none" fill="#3c3c3c" fill-rule="evenodd"></path><path id="path7" d="M210.691 199.889 C 211.401 199.977,212.661 199.979,213.491 199.892 C 214.321 199.805,213.740 199.733,212.200 199.731 C 210.660 199.729,209.981 199.800,210.691 199.889 " stroke="none" fill="#a4a4a4" fill-rule="evenodd"></path><path id="path8" d="M268.131 64.600 C 268.133 66.140,268.205 66.721,268.292 65.891 C 268.379 65.061,268.377 63.801,268.289 63.091 C 268.200 62.381,268.129 63.060,268.131 64.600 M220.514 75.400 C 220.517 76.500,220.595 76.903,220.687 76.295 C 220.779 75.686,220.777 74.786,220.682 74.295 C 220.587 73.803,220.511 74.300,220.514 75.400 M84.912 79.495 C 85.964 79.577,87.584 79.576,88.512 79.492 C 89.440 79.408,88.580 79.341,86.600 79.342 C 84.620 79.343,83.860 79.412,84.912 79.495 M213.312 79.495 C 214.364 79.577,215.984 79.576,216.912 79.492 C 217.840 79.408,216.980 79.341,215.000 79.342 C 213.020 79.343,212.260 79.412,213.312 79.495 M52.146 112.600 C 52.147 114.800,52.214 115.649,52.295 114.487 C 52.376 113.324,52.376 111.524,52.293 110.487 C 52.211 109.449,52.145 110.400,52.146 112.600 " stroke="none" fill="#a40404" fill-rule="evenodd"></path></g></svg>